<?xml version="1.0" encoding="UTF-8"?>
<svg id="Calque_7" data-name="Calque 7" xmlns="http://www.w3.org/2000/svg" viewBox="0 0 1000 1000">
  <defs>
    <style>
      .cls-1 {
        fill: #fff;
      }
    </style>
  </defs>
  <path class="cls-1" d="M802.72,216.14c28.51,32.54,2.14,144.99-43.38,146.65-16.78.61-72.91-31.32-76.58-16.38,1.68,46.65-1.62,93.64.01,140.27,3.13,89.36,19.43,169.72-5.67,259.88-42.13,151.32-225.56,162.33-318.68,48.93-79.83-97.22-37.27-247.51-31.01-359.64.93-16.75,2.43-75.02-2.76-87.25-12-28.24-73.79,20.5-107.07-2.64-24.92-17.32-41.1-91.91-26.7-117.08,8.8-15.38,78.51-44.7,98.55-53.9,26.64-12.23,96.33-45.96,121.84-46.54,55.62-1.27,58.64,85.58,116.36,73.72,29.65-6.09,35.02-45.26,58.58-54.81,10.86-4.4,32.22-4.25,43.99-2.98,30.32,3.28,153.86,50.47,172.53,71.77ZM546.9,382.08c-1.67-.96-3.94-9.55-8.31-13.07-16.45-13.25-37.61-18.73-57.92-10.52-31.74,12.84-21.55,51.42-24.89,55.28-.94,1.08-18.72,5.07-26.67,10.46-42.4,28.72-23.64,83.27,27,72.04,2.34,47.68,49.71,77.09,76.56,27.15,32.83,23.78,77.81,10.1,66.5-35.23-1.88-7.54-10.07-16.2-10.11-21.31-.04-5.85,10.29-13.5,13.71-21.39,12.5-28.77-.3-56.13-31.5-62.35-7.4-1.48-19.18,1.95-24.4-1.04ZM643.82,683.99c-58.44,22.28-79.37,85.47-74.22,144.63,24.49-6.97,41.48-33.46,52.82-54.65,15.39-28.76,24.85-56.69,21.41-89.98ZM444.46,824.73c11.84-16.02-49.2-142.3-89.86-128.99,14.99,50.52,39.87,104.85,89.86,128.99Z"/>
</svg>